<?xml version="1.0" standalone="no"?>
<!DOCTYPE svg PUBLIC "-//W3C//DTD SVG 20010904//EN"
 "http://www.w3.org/TR/2001/REC-SVG-20010904/DTD/svg10.dtd">
<svg version="1.0" xmlns="http://www.w3.org/2000/svg"
 width="744.000000pt" height="744.000000pt" viewBox="0 0 744.000000 744.000000"
 preserveAspectRatio="xMidYMid meet">
<metadata>
Created by potrace 1.11, written by Peter Selinger 2001-2013
</metadata>
<g transform="translate(0.000000,744.000000) scale(0.100000,-0.100000)"
fill="#000000" stroke="none">
<path d="M3635 6290 c-44 -33 -84 -63 -90 -67 -5 -5 -48 -35 -95 -67 -47 -33
-86 -63 -88 -67 -2 -5 -7 -9 -12 -9 -7 0 -230 -155 -355 -246 -11 -8 -144
-102 -295 -208 -151 -107 -280 -199 -286 -204 -10 -9 -76 -54 -113 -77 -9 -5
-18 -12 -21 -16 -3 -3 -34 -25 -70 -50 -36 -24 -69 -48 -75 -52 -18 -14 -113
-81 -165 -117 -28 -19 -57 -40 -63 -45 -7 -6 -57 -42 -112 -80 -55 -38 -104
-73 -110 -77 -5 -5 -172 -123 -370 -263 -198 -139 -364 -257 -370 -262 -5 -5
-46 -34 -90 -64 -147 -102 -460 -323 -465 -329 -3 -3 -41 -30 -85 -60 -44 -30
-85 -59 -92 -65 -7 -5 -57 -41 -112 -79 l-99 -69 56 -41 c31 -23 80 -57 107
-76 28 -19 55 -38 60 -43 6 -4 80 -57 165 -117 85 -61 164 -116 175 -124 11
-8 58 -42 105 -75 47 -33 90 -63 95 -68 6 -4 29 -21 53 -36 23 -15 50 -34 60
-42 9 -8 78 -57 152 -109 220 -154 355 -250 360 -256 3 -3 32 -23 65 -45 33
-22 62 -43 63 -47 2 -5 10 -8 17 -8 7 0 15 -3 17 -8 3 -8 148 -113 213 -154
11 -7 22 -16 25 -19 3 -3 75 -54 160 -114 85 -60 160 -113 165 -118 6 -4 147
-104 315 -223 168 -118 313 -221 323 -229 9 -8 22 -15 27 -15 6 0 10 -4 10 -8
0 -4 15 -16 33 -27 33 -19 180 -123 208 -147 8 -7 27 -20 41 -28 14 -8 36 -23
49 -33 13 -10 116 -83 229 -163 113 -80 214 -152 225 -160 156 -111 139 -108
228 -40 26 20 50 36 53 36 3 0 12 6 19 13 30 26 45 37 97 71 52 35 423 296
443 313 6 4 71 51 145 103 74 51 137 96 140 99 3 4 19 15 35 27 17 11 55 38
85 59 30 21 75 52 100 69 25 17 50 35 57 41 6 5 27 20 45 33 157 110 415 292
423 299 6 4 33 24 60 43 28 19 55 38 60 42 6 5 91 65 190 135 203 142 294 207
312 223 7 5 15 10 18 10 3 0 11 5 18 10 7 6 37 28 67 50 30 22 60 44 67 50 7
5 16 10 22 10 5 0 11 4 13 8 2 4 80 61 173 127 94 65 172 121 175 124 3 4 13
11 22 16 16 10 282 198 316 223 26 20 224 161 252 180 100 67 220 155 220 161
0 3 -13 15 -30 24 -16 10 -35 23 -43 30 -7 7 -20 17 -29 22 -27 17 -329 229
-341 240 -7 6 -34 26 -62 45 -27 19 -54 38 -60 43 -5 4 -109 78 -230 163 -121
85 -228 161 -238 169 -9 8 -21 15 -25 15 -4 0 -20 11 -37 25 -42 34 -354 255
-360 255 -5 0 -36 24 -59 46 -6 6 -22 16 -34 23 -13 7 -31 19 -40 26 -9 8
-159 114 -332 236 -173 123 -317 225 -320 228 -5 6 -78 57 -109 76 -9 6 -110
77 -226 159 -115 82 -250 178 -300 213 -49 35 -97 69 -105 76 -8 7 -51 36 -95
66 -44 30 -82 57 -85 60 -3 4 -25 19 -50 36 -25 16 -57 39 -71 50 -14 11 -35
26 -45 33 -10 7 -50 35 -89 62 -38 27 -78 55 -88 62 -11 7 -61 43 -112 81 -51
37 -95 67 -97 66 -1 0 -39 -27 -83 -59z m127 -390 c24 -17 76 -54 117 -83 96
-68 75 -53 381 -270 146 -103 273 -194 283 -202 9 -8 20 -15 23 -15 3 0 11 -6
19 -12 13 -13 277 -200 320 -228 13 -8 62 -43 109 -77 48 -35 90 -63 95 -63 5
0 11 -4 13 -8 2 -4 53 -44 115 -87 62 -44 153 -109 203 -145 51 -36 99 -69
108 -75 9 -5 19 -12 22 -15 3 -3 59 -44 125 -90 66 -47 122 -88 123 -92 2 -5
8 -8 13 -8 6 0 30 -15 53 -32 24 -18 54 -40 66 -48 12 -8 41 -29 64 -46 48
-36 330 -234 353 -249 9 -5 24 -16 32 -22 9 -7 77 -55 151 -107 74 -53 140
-99 145 -103 6 -5 41 -30 78 -57 l68 -48 -98 -68 c-54 -38 -102 -73 -108 -77
-5 -5 -48 -36 -95 -68 -47 -33 -156 -110 -243 -172 -87 -62 -162 -113 -167
-113 -5 0 -10 -4 -12 -8 -1 -5 -63 -51 -137 -103 -73 -52 -157 -111 -185 -131
-28 -20 -80 -57 -116 -82 -63 -43 -454 -320 -495 -350 -11 -8 -150 -107 -310
-220 -159 -112 -294 -208 -300 -213 -32 -26 -116 -83 -124 -83 -5 0 -11 -4
-13 -8 -1 -4 -39 -33 -83 -64 -44 -32 -84 -61 -90 -65 -5 -5 -39 -29 -75 -53
-36 -25 -69 -48 -75 -52 -29 -22 -116 -85 -132 -95 -55 -38 -191 -135 -208
-149 -54 -44 -49 -46 -261 104 -110 78 -227 160 -262 184 -34 24 -68 48 -75
54 -7 6 -37 28 -67 49 -30 21 -116 81 -190 134 -74 53 -151 107 -171 121 -20
14 -118 84 -219 155 -290 206 -304 216 -402 284 -51 36 -97 69 -103 74 -5 4
-147 105 -315 223 -168 119 -315 224 -328 235 -12 10 -25 19 -27 19 -3 0 -41
26 -85 58 -44 31 -137 97 -207 147 -70 49 -129 93 -131 97 -2 5 -8 8 -13 8 -6
0 -15 5 -22 10 -17 15 -144 107 -226 164 -39 27 -71 52 -71 55 0 4 45 38 101
76 55 39 113 79 127 90 22 17 417 297 475 337 11 7 41 29 67 48 27 19 94 67
150 105 56 39 111 78 121 88 11 9 21 17 24 17 2 0 73 49 157 109 226 160 521
369 538 381 21 14 150 106 177 126 12 9 66 47 120 84 54 38 106 75 115 82 10
7 40 29 68 48 28 19 88 62 134 95 47 33 110 78 142 100 31 22 85 60 120 85 34
25 71 51 81 58 10 7 88 62 173 122 85 60 163 115 173 122 11 7 26 18 35 25 10
7 18 13 19 13 1 0 22 -14 45 -30z"/>
<path d="M3995 5510 c9 -15 9 -151 0 -214 -7 -47 -38 -122 -62 -148 -22 -24
-98 -68 -131 -76 -15 -3 -61 -6 -102 -5 -91 1 -155 27 -204 84 -49 58 -64 118
-67 272 -1 48 -7 87 -12 87 -8 0 -103 -64 -117 -80 -3 -3 -32 -23 -65 -45 -33
-22 -67 -45 -75 -52 -13 -10 -323 -231 -370 -263 -8 -5 -59 -42 -113 -80 -54
-39 -102 -70 -107 -70 -4 0 -10 -4 -12 -8 -2 -7 -201 -150 -390 -282 -113 -79
-215 -151 -233 -166 -11 -8 -64 -46 -118 -84 -54 -37 -108 -75 -120 -84 -12
-9 -49 -35 -82 -58 -33 -23 -61 -46 -63 -50 -2 -4 -8 -8 -13 -8 -5 0 -42 -24
-82 -53 -39 -29 -110 -80 -157 -112 -47 -33 -89 -63 -95 -67 -5 -5 -81 -58
-167 -120 l-157 -111 94 -68 c52 -38 99 -69 104 -69 5 0 11 -4 13 -8 2 -6 406
-295 707 -506 164 -114 327 -230 331 -235 3 -3 13 -10 22 -16 9 -5 74 -50 143
-100 70 -49 134 -94 143 -100 10 -5 19 -13 22 -16 3 -3 59 -43 125 -90 66 -46
125 -87 130 -91 6 -5 48 -35 95 -68 47 -33 94 -66 105 -74 11 -8 67 -48 125
-88 155 -109 175 -123 180 -128 3 -3 34 -25 70 -49 36 -24 74 -52 85 -61 49
-41 53 -36 53 73 1 55 4 115 8 131 11 52 51 121 88 154 96 84 295 81 391 -6
62 -56 86 -139 89 -309 0 -40 4 -73 8 -73 4 0 16 7 25 15 10 8 88 64 173 124
85 60 160 113 166 118 5 4 17 13 26 18 13 8 181 127 311 220 15 11 60 42 100
70 40 27 74 52 77 55 15 16 80 60 88 60 6 0 12 4 14 8 2 4 39 33 83 63 44 29
82 57 85 60 3 3 43 32 90 65 47 32 90 62 95 66 6 5 42 30 80 58 39 27 75 53
80 58 6 4 44 31 85 59 101 69 792 559 807 572 7 6 17 11 23 11 5 0 10 3 10 8
0 4 25 23 55 42 30 19 54 40 54 45 1 6 -25 28 -56 50 -147 103 -175 123 -239
169 -38 27 -98 70 -134 94 -36 25 -66 49 -68 54 -2 4 -8 8 -14 8 -5 0 -15 6
-23 13 -7 6 -74 55 -149 107 -142 99 -304 213 -321 227 -5 5 -46 33 -90 63
-44 30 -82 57 -85 61 -3 3 -34 25 -70 49 -36 24 -69 48 -75 53 -5 4 -46 33
-90 64 -44 31 -102 72 -130 91 -110 78 -785 553 -899 634 -96 68 -113 78 -101
58z m-90 -855 c72 -3 141 -8 155 -10 14 -2 49 -6 78 -9 29 -4 76 -11 105 -17
28 -6 63 -12 77 -14 14 -2 57 -11 95 -20 39 -9 79 -19 91 -21 12 -2 79 -24
151 -48 370 -127 620 -300 751 -522 51 -86 74 -167 75 -264 1 -102 -6 -144
-38 -220 -51 -121 -171 -264 -295 -350 -19 -13 -37 -27 -40 -30 -6 -8 -153
-90 -200 -112 -107 -50 -155 -69 -250 -101 -104 -35 -186 -59 -205 -62 -5 0
-35 -6 -65 -13 -30 -6 -71 -14 -90 -17 -19 -3 -42 -8 -50 -10 -14 -4 -67 -12
-130 -20 -234 -31 -643 -26 -870 10 -25 4 -54 8 -65 10 -18 2 -129 23 -165 30
-8 2 -15 4 -15 5 0 2 -22 7 -60 15 -16 3 -59 15 -95 26 -36 12 -69 22 -75 24
-5 1 -17 5 -25 8 -8 3 -46 18 -84 32 -93 34 -253 115 -328 166 -53 36 -172
132 -203 164 -28 28 -105 133 -105 142 0 6 -4 13 -8 15 -10 4 -47 91 -62 147
-24 92 -15 252 18 317 5 11 20 39 32 64 13 25 29 52 36 61 8 8 14 19 14 22 0
17 126 147 196 203 88 70 352 211 430 230 16 4 34 10 39 14 9 7 172 58 205 65
8 2 38 9 65 15 28 6 59 14 70 16 76 15 134 26 155 28 14 2 50 7 80 11 86 13
88 13 220 20 69 4 126 8 127 9 2 2 108 -1 258 -9z"/>
<path d="M2531 4130 c-6 -4 -9 -754 -3 -812 2 -15 16 -17 112 -17 72 1 112 5
117 12 4 7 7 82 8 169 0 86 3 160 7 163 4 4 51 7 105 8 l98 2 2 -150 c1 -83 2
-162 3 -178 l0 -27 118 4 c64 2 118 4 120 5 1 1 1 187 0 414 l-3 412 -120 0
-120 0 2 -148 3 -147 -28 0 c-15 0 -60 0 -101 0 -40 -1 -76 2 -80 5 -3 4 -6
70 -6 148 l0 142 -113 0 c-62 0 -117 -2 -121 -5z"/>
<path d="M3425 4130 c-2 -4 2 -800 4 -823 1 -4 52 -6 114 -5 l112 3 -3 203
c-1 134 1 201 8 197 5 -3 10 -10 10 -15 0 -8 45 -106 131 -287 l49 -103 127 5
c69 3 128 7 130 9 4 4 -73 153 -89 174 -6 6 -8 12 -4 12 3 0 -8 23 -25 52 -68
115 -119 227 -111 246 10 26 145 236 154 240 5 2 8 8 8 14 0 6 11 26 25 44 14
18 25 35 25 39 0 11 -225 2 -245 -10 -11 -7 -56 -85 -100 -173 -44 -89 -82
-161 -85 -162 -3 0 -6 77 -5 170 0 94 -2 170 -5 171 -20 4 -222 3 -225 -1z"/>
<path d="M4243 4120 c-5 -8 -8 -46 -6 -85 2 -38 5 -218 6 -400 l2 -330 84 -2
c46 -1 89 1 96 3 9 4 12 29 10 97 -5 128 -7 285 -6 331 l1 39 20 -26 c11 -14
20 -28 20 -31 0 -3 28 -46 63 -95 34 -49 98 -142 141 -206 l79 -116 66 1 c36
1 73 4 81 6 13 3 15 54 15 406 0 222 -4 408 -8 415 -5 7 -37 11 -92 11 l-85
-1 0 -216 0 -216 -20 25 c-11 14 -20 30 -20 37 0 6 -4 13 -8 15 -12 4 -72 95
-72 107 0 6 -4 11 -8 11 -5 0 -15 12 -23 28 -8 15 -17 29 -20 32 -3 3 -30 41
-59 85 -29 44 -55 82 -57 85 -3 3 -47 5 -98 5 -73 1 -95 -3 -102 -15z"/>
</g>
</svg>
